<svg width="91" height="91" viewBox="0 0 91 91" fill="none" xmlns="http://www.w3.org/2000/svg">
<path d="M53.5508 32C57.4168 32 60.5508 28.866 60.5508 25C60.5508 21.134 57.4168 18 53.5508 18C49.6848 18 46.5508 21.134 46.5508 25C46.5508 28.866 49.6848 32 53.5508 32Z" fill="black"/>
<path d="M66.0508 14C50.2689 30.2225 47.3599 29.2903 29.0508 39" stroke="black" stroke-width="3" stroke-linecap="round"/>
<path d="M77.4485 30.504C77.4485 38.9093 74.6105 45.8853 68.936 51.432C63.2613 56.936 56.008 59.688 47.176 59.688C42.0987 59.688 37.7467 58.7067 34.12 56.744V76.456C34.12 80.595 34.6533 83.325 35.72 84.648C36.7867 85.971 39.1547 86.867 42.824 87.336C43.5067 87.336 43.848 87.933 43.848 89.128C43.848 90.323 43.5067 90.92 42.824 90.92C41.0747 90.92 38.8133 90.792 36.04 90.536C33.0533 90.28 30.536 90.152 28.488 90.152C26.3547 90.152 23.7733 90.28 20.744 90.536C18.0133 90.792 15.7733 90.92 14.024 90.92C13.3413 90.92 13 90.323 13 89.128C13 87.933 13.3413 87.336 14.024 87.336C17.6507 86.867 19.9973 85.971 21.064 84.648C22.1733 83.325 22.728 80.595 22.728 76.456V19.752C22.728 16.3387 22.28 14.0987 21.384 13.032C20.5307 11.9653 18.5893 11.2613 15.56 10.92C14.8773 10.92 14.536 10.3653 14.536 9.25604C14.536 8.23204 14.8773 7.72004 15.56 7.72004C19.6987 6.69604 23.1547 5.52274 25.928 4.20004C28.744 2.87734 30.6 1.74674 31.496 0.808037C31.9653 0.296037 32.4133 0.0400391 32.84 0.0400391C34.0347 0.0400391 34.632 0.381337 34.632 1.06404L34.12 9.12804C36.4667 6.69604 39.176 4.66934 42.248 3.04804C45.32 1.38404 47.944 0.552036 50.12 0.552036C58.5253 0.552036 65.1813 3.30404 70.088 8.80804C74.9945 14.2693 77.4485 21.5013 77.4485 30.504ZM64.584 30.376C64.584 23.2507 63.0267 17.704 59.912 13.736C56.84 9.72534 52.5093 7.72004 46.92 7.72004C44.5733 7.72004 42.44 8.21074 40.52 9.19204C38.6427 10.1733 36.5093 11.9867 34.12 14.632V45.992C34.12 48.7227 35.336 51.0053 37.768 52.84C40.2 54.6747 43.1653 55.592 46.664 55.592C52.4667 55.592 56.904 53.416 59.976 49.064C63.048 44.6693 64.584 38.44 64.584 30.376Z" fill="black"/>
</svg>
