<svg width="147" height="147" viewBox="0 0 147 147" fill="none" xmlns="http://www.w3.org/2000/svg">
<circle cx="79.5" cy="60" r="7" fill="black"/>
<path d="M92 49C76.2181 65.2225 73.3091 64.2903 55 74" stroke="black" stroke-width="3" stroke-linecap="round"/>
<path d="M103.398 65.504C103.398 73.9093 100.56 80.8853 94.8855 86.432C89.2108 91.936 81.9575 94.688 73.1255 94.688C68.0482 94.688 63.6962 93.7067 60.0695 91.744V111.456C60.0695 115.595 60.6028 118.325 61.6695 119.648C62.7362 120.971 65.1042 121.867 68.7735 122.336C69.4562 122.336 69.7975 122.933 69.7975 124.128C69.7975 125.323 69.4562 125.92 68.7735 125.92C67.0242 125.92 64.7628 125.792 61.9895 125.536C59.0028 125.28 56.4855 125.152 54.4375 125.152C52.3042 125.152 49.7228 125.28 46.6935 125.536C43.9628 125.792 41.7228 125.92 39.9735 125.92C39.2908 125.92 38.9495 125.323 38.9495 124.128C38.9495 122.933 39.2908 122.336 39.9735 122.336C43.6002 121.867 45.9468 120.971 47.0135 119.648C48.1228 118.325 48.6775 115.595 48.6775 111.456V54.752C48.6775 51.3387 48.2295 49.0987 47.3335 48.032C46.4802 46.9653 44.5388 46.2613 41.5095 45.92C40.8268 45.92 40.4855 45.3653 40.4855 44.256C40.4855 43.232 40.8268 42.72 41.5095 42.72C45.6482 41.696 49.1042 40.5227 51.8775 39.2C54.6935 37.8773 56.5495 36.7467 57.4455 35.808C57.9148 35.296 58.3628 35.04 58.7895 35.04C59.9842 35.04 60.5815 35.3813 60.5815 36.064L60.0695 44.128C62.4162 41.696 65.1255 39.6693 68.1975 38.048C71.2695 36.384 73.8935 35.552 76.0695 35.552C84.4748 35.552 91.1308 38.304 96.0375 43.808C100.944 49.2693 103.398 56.5013 103.398 65.504ZM90.5335 65.376C90.5335 58.2507 88.9762 52.704 85.8615 48.736C82.7895 44.7253 78.4588 42.72 72.8695 42.72C70.5228 42.72 68.3895 43.2107 66.4695 44.192C64.5922 45.1733 62.4588 46.9867 60.0695 49.632V80.992C60.0695 83.7227 61.2855 86.0053 63.7175 87.84C66.1495 89.6747 69.1148 90.592 72.6135 90.592C78.4162 90.592 82.8535 88.416 85.9255 84.064C88.9975 79.6693 90.5335 73.44 90.5335 65.376Z" fill="black"/>
</svg>
